<svg width="32" height="32" viewBox="0 0 32 32" fill="none" xmlns="http://www.w3.org/2000/svg">
<path d="M11 23C10.7348 23 10.4804 22.8946 10.2929 22.7071C10.1054 22.5195 10 22.2652 10 22V9.99995C10.0001 9.82956 10.0437 9.66202 10.1267 9.51323C10.2098 9.36443 10.3294 9.23932 10.4744 9.14976C10.6194 9.0602 10.7848 9.00917 10.955 9.0015C11.1252 8.99383 11.2946 9.02979 11.447 9.10595L23.447 15.106C23.6129 15.1891 23.7524 15.3167 23.8498 15.4746C23.9473 15.6325 23.9989 15.8144 23.9989 16C23.9989 16.1855 23.9473 16.3674 23.8498 16.5253C23.7524 16.6832 23.6129 16.8108 23.447 16.894L11.447 22.894C11.3082 22.9635 11.1552 22.9998 11 23ZM12 11.618V20.382L20.764 16L12 11.618Z" fill="black"/>
<path d="M16 4C18.3734 4 20.6935 4.70379 22.6668 6.02236C24.6402 7.34094 26.1783 9.21509 27.0866 11.4078C27.9948 13.6005 28.2325 16.0133 27.7694 18.3411C27.3064 20.6689 26.1635 22.8071 24.4853 24.4853C22.8071 26.1635 20.6689 27.3064 18.3411 27.7694C16.0133 28.2324 13.6005 27.9948 11.4078 27.0866C9.21509 26.1783 7.34095 24.6402 6.02237 22.6668C4.70379 20.6935 4.00001 18.3734 4.00001 16C4.00001 12.8174 5.26429 9.76515 7.51472 7.51472C9.76516 5.26428 12.8174 4 16 4ZM16 2C13.2311 2 10.5243 2.82109 8.22202 4.35943C5.91973 5.89777 4.12532 8.08427 3.06569 10.6424C2.00607 13.2006 1.72882 16.0155 2.26901 18.7313C2.80921 21.447 4.14258 23.9416 6.10051 25.8995C8.05845 27.8574 10.553 29.1908 13.2687 29.731C15.9845 30.2712 18.7994 29.9939 21.3576 28.9343C23.9157 27.8747 26.1022 26.0803 27.6406 23.778C29.1789 21.4757 30 18.7689 30 16C30 12.287 28.525 8.72601 25.8995 6.1005C23.274 3.475 19.713 2 16 2Z" fill="black"/>
</svg>
