<svg width="31" height="31" viewBox="0 0 31 31" fill="none" xmlns="http://www.w3.org/2000/svg">
<path d="M25.9231 7.28131H21.3694C21.42 7.23841 21.472 7.19681 21.5213 7.15132C21.9155 6.80057 22.2333 6.37214 22.4546 5.89281C22.676 5.41349 22.7962 4.89358 22.8077 4.36561C22.8247 3.78803 22.7237 3.21305 22.5109 2.67597C22.298 2.1389 21.9777 1.65106 21.5698 1.2424C21.1618 0.833751 20.6748 0.512908 20.1385 0.299573C19.6023 0.0862372 19.0281 -0.0150888 18.4513 0.00181486C17.9239 0.0131915 17.4045 0.133476 16.9256 0.355139C16.4467 0.576802 16.0187 0.895072 15.6683 1.29002C15.1834 1.85275 14.7892 2.48782 14.5 3.17229C14.2108 2.48782 13.8166 1.85275 13.3317 1.29002C12.9813 0.895072 12.5533 0.576802 12.0744 0.355139C11.5955 0.133476 11.0761 0.0131915 10.5487 0.00181486C9.97188 -0.0150888 9.39774 0.0862372 8.86148 0.299573C8.32523 0.512908 7.83817 0.833751 7.43022 1.2424C7.02226 1.65106 6.70202 2.1389 6.48914 2.67597C6.27627 3.21305 6.17526 3.78803 6.19231 4.36561C6.20385 4.89358 6.32405 5.41349 6.54539 5.89281C6.76674 6.37214 7.08446 6.80057 7.4787 7.15132C7.52803 7.19421 7.57995 7.23581 7.63058 7.28131H3.07692C2.52609 7.28131 1.99782 7.50043 1.60832 7.89048C1.21882 8.28053 1 8.80955 1 9.36116V13.5209C1 14.0725 1.21882 14.6015 1.60832 14.9915C1.99782 15.3816 2.52609 15.6007 3.07692 15.6007V23.9201C3.07692 24.4718 3.29574 25.0008 3.68524 25.3908C4.07474 25.7809 4.60301 26 5.15385 26H23.8462C24.397 26 24.9253 25.7809 25.3148 25.3908C25.7043 25.0008 25.9231 24.4718 25.9231 23.9201V15.6007C26.4739 15.6007 27.0022 15.3816 27.3917 14.9915C27.7812 14.6015 28 14.0725 28 13.5209V9.36116C28 8.80955 27.7812 8.28053 27.3917 7.89048C27.0022 7.50043 26.4739 7.28131 25.9231 7.28131ZM17.226 2.66793C17.3904 2.4861 17.5906 2.34027 17.814 2.23961C18.0373 2.13894 18.2791 2.08561 18.524 2.08297H18.5876C18.8747 2.08477 19.1586 2.14393 19.4226 2.25699C19.6865 2.37005 19.9253 2.53474 20.1249 2.74139C20.3245 2.94805 20.4809 3.19253 20.5849 3.46049C20.689 3.72845 20.7385 4.01452 20.7308 4.30191C20.7281 4.5472 20.6749 4.7893 20.5744 5.013C20.4738 5.2367 20.3282 5.43717 20.1466 5.60182C18.9148 6.69375 16.8703 7.07852 15.6034 7.21371C15.7591 5.83711 16.1875 3.83655 17.226 2.66793ZM8.90659 2.71473C9.30892 2.31187 9.8538 2.08436 10.4227 2.08167H10.4863C10.7313 2.08432 10.973 2.13764 11.1964 2.23831C11.4198 2.33897 11.62 2.4848 11.7844 2.66663C12.8735 3.89894 13.2577 5.9424 13.3927 7.20591C12.131 7.07592 10.0904 6.68595 8.85986 5.59532C8.67828 5.43067 8.53266 5.2302 8.43214 5.0065C8.33162 4.7828 8.27836 4.54071 8.27572 4.29541C8.26767 4.00324 8.31898 3.71247 8.42653 3.44076C8.53408 3.16904 8.69564 2.92203 8.90139 2.71473H8.90659ZM3.07692 9.36116H13.4615V13.5209H3.07692V9.36116ZM5.15385 15.6007H13.4615V23.9201H5.15385V15.6007ZM23.8462 23.9201H15.5385V15.6007H23.8462V23.9201ZM25.9231 13.5209H15.5385V9.36116H25.9231V13.5209Z" fill="black"/>
</svg>
