<svg width="28" height="28" viewBox="0 0 28 28" fill="none" xmlns="http://www.w3.org/2000/svg">
<path d="M8.16634 16.3333C8.78518 16.3333 9.37867 16.0875 9.81626 15.6499C10.2538 15.2123 10.4997 14.6188 10.4997 14C10.4997 13.3811 10.2538 12.7876 9.81626 12.35C9.37867 11.9125 8.78518 11.6666 8.16634 11.6666C7.5475 11.6666 6.95401 11.9125 6.51643 12.35C6.07884 12.7876 5.83301 13.3811 5.83301 14C5.83301 14.6188 6.07884 15.2123 6.51643 15.6499C6.95401 16.0875 7.5475 16.3333 8.16634 16.3333ZM16.333 14C16.333 14.6188 16.0872 15.2123 15.6496 15.6499C15.212 16.0875 14.6185 16.3333 13.9997 16.3333C13.3808 16.3333 12.7873 16.0875 12.3498 15.6499C11.9122 15.2123 11.6663 14.6188 11.6663 14C11.6663 13.3811 11.9122 12.7876 12.3498 12.35C12.7873 11.9125 13.3808 11.6666 13.9997 11.6666C14.6185 11.6666 15.212 11.9125 15.6496 12.35C16.0872 12.7876 16.333 13.3811 16.333 14ZM19.833 16.3333C20.4518 16.3333 21.0453 16.0875 21.4829 15.6499C21.9205 15.2123 22.1663 14.6188 22.1663 14C22.1663 13.3811 21.9205 12.7876 21.4829 12.35C21.0453 11.9125 20.4518 11.6666 19.833 11.6666C19.2142 11.6666 18.6207 11.9125 18.1831 12.35C17.7455 12.7876 17.4997 13.3811 17.4997 14C17.4997 14.6188 17.7455 15.2123 18.1831 15.6499C18.6207 16.0875 19.2142 16.3333 19.833 16.3333Z" fill="black"/>
<path fill-rule="evenodd" clip-rule="evenodd" d="M28 14C28 21.7315 21.7315 28 14 28C6.2685 28 0 21.7315 0 14C0 6.2685 6.2685 0 14 0C21.7315 0 28 6.2685 28 14ZM25.6667 14C25.6667 20.4435 20.4435 25.6667 14 25.6667C7.5565 25.6667 2.33333 20.4435 2.33333 14C2.33333 7.5565 7.5565 2.33333 14 2.33333C20.4435 2.33333 25.6667 7.5565 25.6667 14Z" fill="black"/>
</svg>
