<svg width="41" height="35" viewBox="0 0 41 35" fill="none" xmlns="http://www.w3.org/2000/svg">
<g filter="url(#filter0_d_27_670)">
<path d="M20.5879 0.75C20.1991 0.750047 19.8263 0.897037 19.5529 1.1582L4.86897 13.2593C4.68299 13.3889 4.57323 13.5942 4.57324 13.8125C4.57324 14.1922 4.89915 14.5 5.30118 14.5H8.94089V25.5C8.94089 26.259 9.59312 26.875 10.3968 26.875H16.2203C17.0239 26.875 17.6762 26.259 17.6762 25.5V17.25H23.4997V25.5C23.4997 26.259 24.152 26.875 24.9556 26.875H30.7791C31.5828 26.875 32.235 26.259 32.235 25.5V14.5H35.8747C36.2767 14.5 36.6027 14.1922 36.6027 13.8125C36.6027 13.5942 36.4929 13.3889 36.3069 13.2593L21.6315 1.16626C21.6287 1.16357 21.6259 1.16088 21.623 1.15821C21.3496 0.897039 20.9768 0.750047 20.5879 0.75Z" fill="#A96F00"/>
</g>
<defs>
<filter id="filter0_d_27_670" x="0.573242" y="0.75" width="40.0293" height="34.125" filterUnits="userSpaceOnUse" color-interpolation-filters="sRGB">
<feFlood flood-opacity="0" result="BackgroundImageFix"/>
<feColorMatrix in="SourceAlpha" type="matrix" values="0 0 0 0 0 0 0 0 0 0 0 0 0 0 0 0 0 0 127 0" result="hardAlpha"/>
<feOffset dy="4"/>
<feGaussianBlur stdDeviation="2"/>
<feComposite in2="hardAlpha" operator="out"/>
<feColorMatrix type="matrix" values="0 0 0 0 0 0 0 0 0 0 0 0 0 0 0 0 0 0 0.25 0"/>
<feBlend mode="normal" in2="BackgroundImageFix" result="effect1_dropShadow_27_670"/>
<feBlend mode="normal" in="SourceGraphic" in2="effect1_dropShadow_27_670" result="shape"/>
</filter>
</defs>
</svg>
