<svg width="40" height="40" viewBox="0 0 40 40" fill="none" xmlns="http://www.w3.org/2000/svg">
<path d="M13.3333 20C15.1014 20 16.7971 19.2976 18.0474 18.0473C19.2976 16.7971 20 15.1014 20 13.3333C20 11.5652 19.2976 9.86949 18.0474 8.61925C16.7971 7.369 15.1014 6.66663 13.3333 6.66663C11.5652 6.66663 9.86953 7.369 8.61929 8.61925C7.36905 9.86949 6.66667 11.5652 6.66667 13.3333C6.66667 15.1014 7.36905 16.7971 8.61929 18.0473C9.86953 19.2976 11.5652 20 13.3333 20ZM28.3333 20C29.6594 20 30.9312 19.4732 31.8689 18.5355C32.8065 17.5978 33.3333 16.326 33.3333 15C33.3333 13.6739 32.8065 12.4021 31.8689 11.4644C30.9312 10.5267 29.6594 9.99996 28.3333 9.99996C27.0072 9.99996 25.7355 10.5267 24.7978 11.4644C23.8601 12.4021 23.3333 13.6739 23.3333 15C23.3333 16.326 23.8601 17.5978 24.7978 18.5355C25.7355 19.4732 27.0072 20 28.3333 20ZM5.625 22.5C4.7962 22.5 4.00134 22.8292 3.41529 23.4152C2.82924 24.0013 2.5 24.7962 2.5 25.625V26.6666C2.5 26.6666 2.5 34.1666 13.3333 34.1666C24.1667 34.1666 24.1667 26.6666 24.1667 26.6666V25.625C24.1667 24.7962 23.8374 24.0013 23.2514 23.4152C22.6653 22.8292 21.8705 22.5 21.0417 22.5H5.625ZM23.895 31.7408C25.0417 32.2058 26.4942 32.5 28.3325 32.5C37.0825 32.5 37.0825 25.8333 37.0825 25.8333V25.625C37.0825 24.7963 36.7534 24.0016 36.1675 23.4155C35.5816 22.8295 34.787 22.5002 33.9583 22.5H24.6725C25.4218 23.3685 25.8333 24.4778 25.8317 25.625V26.7041L25.8308 26.7516C25.8259 26.9134 25.8148 27.0749 25.7975 27.2358C25.7562 27.6078 25.6891 27.9764 25.5967 28.3391C25.2811 29.5824 24.7006 30.7427 23.895 31.7408Z" fill="#A96F00"/>
</svg>
