<svg width="32" height="26" viewBox="0 0 32 26" fill="none" xmlns="http://www.w3.org/2000/svg">
<path d="M5.64706 6.25926C5.64706 5.10999 6.09328 4.00779 6.88755 3.19513C7.68182 2.38247 8.75908 1.92593 9.88235 1.92593C11.0056 1.92593 12.0829 2.38247 12.8772 3.19513C13.6714 4.00779 14.1176 5.10999 14.1176 6.25926C14.1176 7.40853 13.6714 8.51073 12.8772 9.32339C12.0829 10.136 11.0056 10.5926 9.88235 10.5926C8.75908 10.5926 7.68182 10.136 6.88755 9.32339C6.09328 8.51073 5.64706 7.40853 5.64706 6.25926ZM9.88235 0C8.25985 0 6.7038 0.659456 5.55652 1.83329C4.40924 3.00713 3.76471 4.5992 3.76471 6.25926C3.76471 7.91932 4.40924 9.51138 5.55652 10.6852C6.7038 11.8591 8.25985 12.5185 9.88235 12.5185C11.5049 12.5185 13.0609 11.8591 14.2082 10.6852C15.3555 9.51138 16 7.91932 16 6.25926C16 4.5992 15.3555 3.00713 14.2082 1.83329C13.0609 0.659456 11.5049 0 9.88235 0ZM20.5873 22.4274C21.6 22.8511 22.8744 23.1111 24.4706 23.1111C28.0113 23.1111 29.9689 21.8246 31.0005 20.3493C31.5386 19.5752 31.8761 18.674 31.9812 17.7301C31.9906 17.6424 31.9969 17.5544 32 17.4662V17.3333C32 16.954 31.927 16.5783 31.7851 16.2278C31.6432 15.8773 31.4352 15.5588 31.173 15.2906C30.9108 15.0223 30.5996 14.8095 30.257 14.6643C29.9144 14.5192 29.5473 14.4444 29.1765 14.4444H20.4612C20.9129 15.003 21.2518 15.6559 21.4494 16.3704H29.1765C29.4261 16.3704 29.6655 16.4718 29.842 16.6524C30.0185 16.833 30.1176 17.0779 30.1176 17.3333V17.4373L30.1082 17.5336C30.0361 18.1443 29.8162 18.7268 29.4682 19.2284C28.8527 20.1124 27.5162 21.1852 24.4706 21.1852C23.0927 21.1852 22.0649 20.9656 21.2951 20.644C21.1407 21.1833 20.9167 21.7919 20.5873 22.4274ZM0 18.2963C0 17.2747 0.396637 16.295 1.10266 15.5726C1.80868 14.8503 2.76624 14.4444 3.76471 14.4444H16C16.9985 14.4444 17.956 14.8503 18.662 15.5726C19.3681 16.295 19.7647 17.2747 19.7647 18.2963V18.4581C19.7647 18.4773 19.7647 18.5024 19.7609 18.5351C19.738 18.9164 19.6845 19.2952 19.6009 19.6676C19.4409 20.3763 19.1228 21.3239 18.4809 22.2753C17.1614 24.2281 14.6127 26 9.88235 26C5.152 26 2.60329 24.2281 1.28376 22.2753C0.588845 21.2396 0.155544 20.0439 0.0225882 18.7951C0.0113401 18.6831 0.00380644 18.5706 0 18.4581V18.4157V18.2963ZM1.88235 18.4119V18.4465L1.89553 18.6064C1.99752 19.5296 2.31941 20.4131 2.83294 21.1794C3.74965 22.5353 5.67153 24.0741 9.88235 24.0741C14.0932 24.0741 16.0151 22.5353 16.9318 21.1794C17.4454 20.4132 17.7673 19.5296 17.8692 18.6064C17.8754 18.5533 17.8791 18.5 17.8805 18.4465L17.8824 18.4138V18.2963C17.8824 17.7855 17.684 17.2956 17.331 16.9345C16.978 16.5733 16.4992 16.3704 16 16.3704H3.76471C3.26547 16.3704 2.78669 16.5733 2.43368 16.9345C2.08067 17.2956 1.88235 17.7855 1.88235 18.2963V18.4119ZM21.6471 7.7037C21.6471 6.93752 21.9445 6.20272 22.4741 5.66095C23.0036 5.11918 23.7217 4.81482 24.4706 4.81482C25.2194 4.81482 25.9376 5.11918 26.4671 5.66095C26.9966 6.20272 27.2941 6.93752 27.2941 7.7037C27.2941 8.46988 26.9966 9.20469 26.4671 9.74646C25.9376 10.2882 25.2194 10.5926 24.4706 10.5926C23.7217 10.5926 23.0036 10.2882 22.4741 9.74646C21.9445 9.20469 21.6471 8.46988 21.6471 7.7037ZM24.4706 2.88889C23.2225 2.88889 22.0256 3.39616 21.143 4.29912C20.2605 5.20207 19.7647 6.42674 19.7647 7.7037C19.7647 8.98067 20.2605 10.2053 21.143 11.1083C22.0256 12.0112 23.2225 12.5185 24.4706 12.5185C25.7187 12.5185 26.9156 12.0112 27.7981 11.1083C28.6807 10.2053 29.1765 8.98067 29.1765 7.7037C29.1765 6.42674 28.6807 5.20207 27.7981 4.29912C26.9156 3.39616 25.7187 2.88889 24.4706 2.88889Z" fill="black"/>
</svg>
